# xmcd
#
# Track frame offsets:
#	150
#	17701
#	32535
#	50015
#	65350
#	81253
#	98675
#	122093
#	140658
#	158283
#	174700
#	191923
#	209578
#	224824
#	242867
#	259710
#
# Disc length: 3691 seconds
#
# Revision: 1
# Processed by: cddbd v1.5.2PL0 Copyright (c) Steve Scherf et al.
# Submitted via: audiograbber 1.83.01
#
DISCID=ec0e6910
DTITLE=JonesTM - HC200712
DYEAR=2007
DGENRE=Country
TTITLE0=Halfway To Hazard - Daisy
TTITLE1=Amy Dalley - Good Kind Of Crazy
TTITLE2=Trent Bourgeois - Duct Taped Bible
TTITLE3=Bomshel - Bomshel Stomp [Radio Edit]
TTITLE4=Rodney Atkins - These Are My People
TTITLE5=Jason Michael Carroll - Livin' Our Love Song
TTITLE6=John Mellencamp - The Americans [Album Version]
TTITLE7=Bon Jovi - (You Want To) Make A Memory [Country Version]
TTITLE8=Tank - Please Don't Go [Radio Edit]
TTITLE9=J. Valentine - She Worth The Trouble [Radio Edit]
TTITLE10=Ne-Yo - Because Of You [Radio]
TTITLE11=Cupid - Cupid Shuffle [Clean]
TTITLE12=NLT - That Girl [Radio Edit]
TTITLE13=Daniela Nardi - You... So Beautiful [Boomtang Radio Edit Mix]
TTITLE14=Gerald Albright - Georgia On My Mind [Radio Edit]
TTITLE15=Everette Harp - Just As You Are
EXTD=
EXTT0=
EXTT1=
EXTT2=
EXTT3=
EXTT4=
EXTT5=
EXTT6=
EXTT7=
EXTT8=
EXTT9=
EXTT10=
EXTT11=
EXTT12=
EXTT13=
EXTT14=
EXTT15=
PLAYORDER=
